<svg width="58" height="61" viewBox="0 0 58 61" fill="none" xmlns="http://www.w3.org/2000/svg">
<path fill-rule="evenodd" clip-rule="evenodd" d="M15.3454 31.7062C16.8001 30.7723 17.2202 30.2855 17.6293 29.0652C17.847 28.4149 17.8602 28.3164 17.9122 26.9276C17.9427 26.1268 17.9698 23.578 17.9725 21.2643C17.9774 16.202 17.9711 16.15 17.25 15.1384C16.9145 14.6683 16.079 13.9528 15.5603 13.69C14.9391 13.3759 14.3345 13.2338 13.6155 13.2338C12.4035 13.2338 11.6283 13.5354 10.8656 14.305C10.4738 14.7002 10.3054 14.9429 10.0204 15.5239C9.48095 16.6243 9.25492 17.3419 9.17726 18.2086C9.07256 19.3707 9.01294 27.3041 9.10307 28.0793C9.19251 28.8475 9.32772 29.3613 9.56207 29.8238C9.88033 30.452 11.0999 31.5974 11.8654 31.9864C12.2724 32.193 12.9706 32.2991 13.7604 32.2727L14.5016 32.2491L15.3454 31.7062ZM12.5567 28.3677C12.7501 28.8468 13.0067 29.1679 13.2917 29.2878C13.465 29.3606 13.5343 29.3592 13.6903 29.2788C14.1486 29.0417 14.4766 28.3324 14.5778 27.3582C14.6146 27.0067 14.6645 24.7539 14.6888 22.3514C14.738 17.5659 14.7227 17.3183 14.3372 16.6603C14.1521 16.3442 13.7708 16.0072 13.5988 16.0072C13.465 16.0072 13.031 16.4655 12.877 16.7699C12.4312 17.6512 12.3452 18.9415 12.375 24.3275C12.3951 27.9552 12.3958 27.969 12.5567 28.3677Z" fill="white"/>
<path fill-rule="evenodd" clip-rule="evenodd" d="M21.0046 29.518C21.0129 27.5634 21.0372 26.8604 21.0982 26.8229C21.1433 26.7952 21.388 26.7508 21.6411 26.7252C23.4521 26.5421 24.4783 25.8279 24.8798 24.4724C25.2015 23.3866 25.1772 20.5452 24.8375 19.4449C24.5539 18.5255 23.5832 17.7836 22.3767 17.5645C22.0647 17.5076 21.0989 17.4438 20.1518 17.4182L18.4787 17.3724L18.4322 20.0356C18.3705 23.587 18.2499 29.4043 18.2062 30.9318L18.1708 32.1625H19.5818L20.9928 32.1618L21.0046 29.518ZM21.0053 21.9451C21.0122 23.198 21.0198 24.245 21.0226 24.2714C21.0282 24.3275 21.4532 24.2741 21.7735 24.1771C21.8976 24.1389 22.0737 24.0093 22.1639 23.8886C22.4683 23.4802 22.5161 23.2015 22.5126 21.83C22.5106 20.7033 22.4939 20.512 22.3754 20.27C22.2152 19.9406 21.8872 19.7583 21.3589 19.7042L20.9928 19.6661L21.0053 21.9451Z" fill="white"/>
<path d="M31.8439 30.8915V29.6206L30.0176 29.6525L28.1906 29.6844L28.1462 28.0633C28.1212 27.1717 28.0817 26.2523 28.0574 26.0193L28.0131 25.5971L28.3861 25.552C28.5906 25.5277 29.2459 25.5069 29.8414 25.5069L30.9238 25.5062L30.9578 25.032C30.9765 24.7706 30.9765 24.236 30.9578 23.8435L30.9231 23.1301L29.4941 23.1564L28.0651 23.1835L28.0692 22.9928C28.072 22.8881 28.0796 22.1504 28.0866 21.3537L28.0997 19.9046L28.8798 19.8838C29.3089 19.8727 30.116 19.8651 30.6742 19.8671L31.6879 19.8713L31.7309 19.517C31.7544 19.3215 31.7738 18.7377 31.7738 18.2197L31.7745 17.2767L30.6825 17.2317C30.082 17.2067 28.6315 17.1866 27.4605 17.1859H25.3298L25.3436 20.0807C25.3582 23.1003 25.3651 29.8453 25.3554 31.3131L25.3499 32.1625H28.5969H31.8439V30.8915Z" fill="white"/>
<path fill-rule="evenodd" clip-rule="evenodd" d="M42.6194 31.8865C42.6388 31.7527 42.6887 31.2992 42.7303 30.8798C42.7726 30.4603 42.8211 30.02 42.8385 29.9021L42.8704 29.6872L43.5041 29.6421C43.8529 29.6172 44.3022 29.597 44.5032 29.597H44.8693L44.9414 29.9611C45.2028 31.2812 45.3658 32.0481 45.3907 32.073C45.4067 32.089 46.0154 32.1174 46.7442 32.1354L48.0685 32.1694V31.9968C48.0685 31.7215 46.7698 25.0063 46.1292 21.9701C45.908 20.9217 45.7055 19.8914 45.6792 19.682C45.6001 19.0469 45.3748 17.7448 45.3325 17.6761C45.3103 17.6394 44.5421 17.6137 43.5353 17.6158L41.7776 17.62L41.6667 18.4256C41.605 18.8687 41.476 19.7617 41.3796 20.41C41.2833 21.0583 41.2049 21.794 41.2042 22.045C41.2042 22.2953 41.1585 22.8257 41.103 23.2237C41.0468 23.621 40.843 25.2719 40.6488 26.8929C40.4554 28.514 40.2356 30.3167 40.1614 30.8999C40.0865 31.483 40.0255 32.0079 40.0255 32.0675C40.0255 32.1611 40.1857 32.1722 41.3048 32.1528L42.584 32.1313L42.6194 31.8865ZM43.0763 27.2701C43.0763 27.3506 43.1997 27.3783 43.6483 27.397C44.3985 27.4296 44.4998 27.4227 44.488 27.3422C44.3895 26.6378 43.5956 22.0519 43.5755 22.072C43.5242 22.1233 43.0763 26.7848 43.0763 27.2701Z" fill="white"/>
<path fill-rule="evenodd" clip-rule="evenodd" d="M34.9668 30.3597C34.9626 29.3876 34.93 28.2332 34.894 27.7943C34.8572 27.3554 34.8274 26.8604 34.8267 26.6933L34.8253 26.3896L35.1082 26.4353C35.5471 26.5054 36.0519 26.7938 36.2439 27.0843C36.5858 27.6023 36.6364 27.8747 36.6967 29.5277C36.7542 31.0898 36.8187 31.5863 37.0129 31.9614L37.1169 32.1625H38.3517C39.0305 32.1625 39.6026 32.1465 39.622 32.1271C39.6407 32.1077 39.6019 31.9281 39.5346 31.7284C39.4583 31.5038 39.3703 30.8499 39.3023 30.0131C39.2427 29.2691 39.1602 28.3809 39.12 28.0384C38.9785 26.8285 38.5091 25.8238 37.9073 25.4417L37.5981 25.2455L37.8068 25.1595C38.0682 25.0514 38.4121 24.6645 38.5757 24.2956C38.8572 23.6591 39.0687 22.651 39.0714 21.9354C39.0749 21.1339 38.8787 20.0883 38.6208 19.5281C38.3982 19.0448 37.8941 18.4971 37.3928 18.1927C36.7099 17.7773 36.1448 17.674 34.0876 17.5881C33.0905 17.5465 32.2245 17.5312 32.1635 17.5548C32.063 17.5936 32.0526 17.9195 32.056 20.8066C32.0581 22.5712 32.0886 24.6555 32.1233 25.4369C32.1587 26.2183 32.219 28.0099 32.2585 29.4182C32.2973 30.8257 32.3452 31.994 32.3653 32.0134C32.3854 32.0335 32.705 32.0439 33.076 32.037C33.4469 32.03 33.9219 32.0522 34.132 32.0862C34.342 32.1202 34.6166 32.1438 34.7435 32.1382L34.9737 32.1278L34.9668 30.3597ZM34.7664 20.4967C34.7913 20.8683 34.8142 21.8619 34.8184 22.7037L34.8253 24.2353L35.2108 24.1826C36.2016 24.0481 36.5171 23.3249 36.3563 21.5589C36.2654 20.557 36.1094 20.2034 35.6601 19.9767C35.475 19.8831 35.224 19.8207 35.0361 19.8207H34.7213L34.7664 20.4967Z" fill="white"/>
<path d="M13.7514 12.8455C14.5771 12.5099 15.0285 12.2506 15.3766 11.9122C15.629 11.6668 16.0075 11.4338 16.7716 11.0531C17.3478 10.7661 17.8567 10.4867 17.9018 10.4319C17.9684 10.3522 17.9372 10.2662 17.7465 9.99786C17.3672 9.46536 17.2195 9.1159 17.1363 8.55775C17.094 8.27139 17.015 8.00098 16.9623 7.95661C16.8437 7.85815 16.5927 7.98226 14.8219 9.01329C14.1355 9.41335 13.2819 9.89385 12.9256 10.0811C12.5692 10.269 12.1691 10.5172 12.0374 10.6323L11.7975 10.8417L11.9791 11.0844C12.0797 11.2182 12.4125 11.7091 12.7196 12.1764C13.0268 12.6437 13.284 13.0258 13.2923 13.0258C13.3007 13.0258 13.5073 12.9446 13.7514 12.8455Z" fill="white"/>
<path d="M23.7538 42.766C24.0457 42.6849 24.5213 42.2918 24.6641 42.0137C24.7882 41.7724 24.9103 40.9473 24.9103 40.3483V39.8588H24.3265C24.0054 39.8588 23.6934 39.8775 23.6331 39.9011C23.5464 39.9343 23.5229 40.0591 23.5194 40.5077C23.5145 41.2392 23.4112 41.5575 23.1776 41.5575C22.8468 41.5575 22.8108 41.3405 22.7747 39.0884C22.7567 37.9569 22.7616 36.9522 22.7865 36.8551C22.8337 36.6672 23.0181 36.5702 23.197 36.6388C23.3606 36.7012 23.4542 37.0493 23.4542 37.5908V38.0761L23.9222 38.0318C24.1795 38.0075 24.4963 37.9874 24.6253 37.9874L24.861 37.9867L24.8236 37.276C24.7785 36.419 24.6489 36.0598 24.2655 35.7312C23.5894 35.1529 22.3871 35.2257 21.7472 35.8837C21.2473 36.3982 21.198 36.6464 21.2174 38.5414C21.2438 41.1054 21.3589 41.7967 21.8456 42.3091C22.288 42.7743 23.0583 42.9588 23.7538 42.766Z" fill="white"/>
<path fill-rule="evenodd" clip-rule="evenodd" d="M26.3025 42.7535C26.3053 42.7438 26.3441 42.4706 26.3892 42.1469L26.4703 41.5575H26.9543H27.4376L27.4917 41.9042C27.5208 42.0948 27.5624 42.3521 27.5832 42.4762L27.6206 42.7015H28.341H29.0614L29.0261 42.4415C29.0066 42.2987 28.8215 41.2302 28.6149 40.0668C28.409 38.9033 28.1531 37.4057 28.047 36.7386L27.855 35.5253L26.9009 35.5059C26.1729 35.4913 25.9413 35.5079 25.9219 35.5752C25.908 35.6237 25.8283 36.2415 25.7458 36.9467C25.5551 38.5657 25.1363 41.6185 25.0205 42.2328C24.972 42.4901 24.9477 42.7161 24.9671 42.7355C25.0018 42.7702 26.2921 42.7875 26.3025 42.7535ZM26.7948 38.4415C26.7484 38.8971 26.6908 39.5197 26.6679 39.8255L26.6256 40.3816L26.9467 40.3559L27.267 40.3302L27.2268 40.0772C27.2046 39.9378 27.1172 39.327 27.0326 38.7189L26.8794 37.613L26.7948 38.4415Z" fill="white"/>
<path d="M30.6451 41.2545L30.6035 39.8075L30.9217 39.7638C31.0964 39.7395 31.3557 39.7201 31.4979 39.7201C31.7329 39.7201 31.7614 39.7 31.8009 39.5038C31.8245 39.3845 31.8439 39.1037 31.8439 38.8797V38.472H31.1852H30.5265L30.5161 37.7094C30.5105 37.2899 30.5029 36.9078 30.4988 36.86C30.4939 36.7969 30.7109 36.7636 31.2892 36.7386L32.0865 36.704L32.1087 36.392C32.1212 36.2207 32.1108 35.9427 32.0859 35.7756L32.0408 35.4712L30.5036 35.5211C29.6584 35.5488 28.9546 35.5835 28.9401 35.5981C28.9255 35.6119 28.9505 36.2727 28.9949 37.0652C29.1106 39.1252 29.2105 42.2703 29.164 42.3909C29.0628 42.6558 29.1779 42.7015 29.9461 42.7015H30.6867L30.6451 41.2545Z" fill="white"/>
<path d="M35.5187 42.1226V41.475L34.652 41.5083L33.7853 41.5415V40.4946V39.4483L34.4266 39.4282L35.068 39.4081L35.0881 38.8361L35.1082 38.264H34.4571H33.8054L33.761 37.7336C33.736 37.4417 33.7159 37.0832 33.7159 36.9363V36.6693H34.575H35.4334L35.4604 36.4786C35.4757 36.3739 35.4715 36.0855 35.4514 35.8373L35.4147 35.3866L34.3746 35.3519L33.3346 35.3173L34.0973 34.8042C34.5168 34.5227 34.8704 34.2835 34.8829 34.2731C34.9217 34.2412 34.6014 33.4091 34.5348 33.3675C34.5001 33.346 34.1035 33.5735 33.6528 33.8723C33.2022 34.1711 32.7744 34.452 32.7023 34.4956C32.5816 34.5691 32.5996 34.6031 32.9415 34.9463L33.3117 35.3173L32.7764 35.3783L32.2419 35.44L32.2828 39.0877C32.305 41.0943 32.3251 42.7438 32.3265 42.7535C32.3278 42.7632 33.0469 42.7709 33.924 42.7709H35.5187V42.1226Z" fill="white"/>
<path d="M28.9734 51.1571C29.5932 50.8568 30.2311 49.873 30.4024 48.9536C30.4981 48.4377 30.4003 47.6667 30.1715 47.1349C30.0127 46.7653 29.5981 46.3451 29.449 46.4027C29.3991 46.4214 29.3207 46.3923 29.275 46.3375C29.1446 46.1801 28.626 46.2141 28.2537 46.4048C27.2843 46.8998 26.6575 48.3074 26.8538 49.5485C26.9453 50.1295 27.1269 50.5157 27.4799 50.879C27.8598 51.2708 27.9597 51.2548 27.873 50.8173C27.7621 50.2536 27.8612 49.8965 28.445 48.7705C28.7425 48.1978 29.0254 47.5953 29.0739 47.433C29.1224 47.2708 29.1751 47.1515 29.1918 47.1682C29.2708 47.2472 28.9512 48.0806 28.5906 48.7338C28.0131 49.78 27.9361 50.0179 27.9756 50.6287C27.9936 50.9088 28.0304 51.1737 28.0581 51.2188C28.1372 51.347 28.653 51.3124 28.9734 51.1571Z" fill="white"/>
<path d="M28.7147 60.6221C28.7765 60.5604 28.7695 52.8128 28.7071 52.2858L28.6565 51.8511L28.8694 52.0085C29.0545 52.1451 29.1661 52.1659 29.7194 52.1659C30.3046 52.1659 30.3954 52.1465 30.8399 51.9281C31.7933 51.4594 32.5372 50.4602 32.5372 49.649C32.5372 48.7657 32.0117 48.5577 31.1782 49.111C30.9071 49.2905 30.6929 49.5394 30.2637 50.1732C29.6653 51.0551 29.3526 51.3789 28.9019 51.5842C28.5407 51.7485 28.3285 51.7471 27.9527 51.5807C27.6088 51.4282 27.448 51.2673 26.6735 50.2994C26.021 49.484 25.5849 49.1193 25.0878 48.9744C24.4305 48.7837 24.1642 49.0569 24.2356 49.8494C24.3376 50.9712 25.406 52.0335 26.6624 52.2623C27.1089 52.3434 27.6726 52.2692 27.9396 52.0945L28.0997 51.9891V56.3129C28.0997 58.6911 28.1233 60.6602 28.1517 60.6887C28.2079 60.7448 28.6433 60.6935 28.7147 60.6221Z" fill="white"/>
<path d="M11.9278 60.8703C13.1384 60.7954 15.2365 60.7005 16.59 60.6595C17.9434 60.6186 19.4411 60.5562 19.9181 60.5209C20.3951 60.4848 21.7569 60.455 22.9453 60.4536C24.911 60.4515 25.1453 60.464 25.5454 60.5895C26.1791 60.7878 26.2831 60.7767 26.3268 60.5035C26.3705 60.231 26.3351 58.5552 26.263 57.5048L26.211 56.7421L21.3832 56.7601C16.6884 56.7774 14.2714 56.828 10.3581 56.9931C8.93042 57.0527 8.07898 57.0527 6.92592 56.9931C6.0821 56.9501 5.10863 56.9147 4.76125 56.9147L4.13099 56.9154L4.08662 53.8473C4.03461 50.2162 3.94864 47.4074 3.78362 43.9496C3.63108 40.7671 3.63316 30.7134 3.78639 26.0796C3.86821 23.5953 3.87376 21.4861 3.81621 13.7517C3.77807 8.61946 3.76143 4.40661 3.77876 4.38927C3.7961 4.37194 5.05524 4.32687 6.57716 4.28943C8.09909 4.25199 9.98433 4.18958 10.7657 4.15145C16.2301 3.88381 18.9925 3.86648 33.2306 4.01139C40.8548 4.08905 42.5916 4.08766 44.7404 4.00585C47.425 3.90323 49.1404 3.8956 51.1262 3.97742L52.3458 4.02734L52.4089 5.5971C52.4852 7.51563 52.4852 9.04726 52.4082 12.2977C52.3638 14.2038 52.377 15.6051 52.4637 18.226C52.5823 21.803 52.662 24.4676 52.784 28.973C52.8235 30.4409 52.9019 32.3441 52.9587 33.2025C53.1626 36.3004 53.2035 38.4582 53.1931 45.5984C53.1876 49.5921 53.2132 53.7176 53.2506 54.766C53.2881 55.8144 53.3151 56.6776 53.311 56.6831C53.3068 56.6894 49.5127 56.7012 44.879 56.7095C37.4719 56.7233 36.3084 56.7109 35.2413 56.6096C33.6799 56.4613 30.9952 56.3552 30.6076 56.4273C30.4426 56.4578 30.2762 56.514 30.2381 56.5521C30.1001 56.6901 30.0945 57.2163 30.2179 58.2709C30.3393 59.2999 30.3393 59.3741 30.2235 59.978C30.1424 60.4009 30.125 60.6325 30.1722 60.6796C30.2186 60.7261 30.5924 60.7206 31.3031 60.6623C32.61 60.5555 36.816 60.6637 38.1188 60.8377C38.792 60.9279 39.2878 60.9404 40.7189 60.9029C41.6917 60.878 44.3438 60.8315 46.6124 60.8003C49.001 60.767 51.0007 60.7095 51.3619 60.6623C51.7149 60.6166 52.3174 60.5978 52.7487 60.6193C53.1681 60.6408 54.3274 60.6644 55.3259 60.672C56.8152 60.6838 57.1612 60.6686 57.2597 60.5867C57.3678 60.4966 57.3754 60.3801 57.3345 59.4122C57.3096 58.8208 57.243 57.7987 57.1869 57.1414C56.9539 54.4138 56.7757 46.5635 56.8242 41.1415C56.8603 37.0735 56.8159 34.8804 56.6668 33.3065C56.6308 32.9252 56.5691 31.1467 56.5289 29.3544C56.4207 24.4523 56.2571 19.0635 56.1676 17.4286C56.1004 16.1875 56.0435 11.1398 56.0151 3.73474C56.0109 2.72452 56.0352 1.67824 56.0678 1.40991C56.1267 0.939116 56.1218 0.915542 55.9381 0.697134C55.5547 0.240903 55.6206 0.249224 52.368 0.228423C50.7469 0.218022 47.7606 0.23813 45.7312 0.272798C43 0.319946 41.7762 0.314399 41.0163 0.253384C40.3153 0.197222 37.6875 0.170181 32.7106 0.167408C27.3287 0.164634 24.9491 0.138286 23.586 0.0640965C21.9358 -0.0246534 21.44 -0.0232663 18.8711 0.0807376C17.2923 0.143833 13.7541 0.213169 11.0084 0.23397C5.35269 0.276265 1.40332 0.372642 0.870815 0.480806C0.635767 0.528647 0.431919 0.626411 0.288393 0.76023L0.0679054 0.966157L0.120601 1.84811C0.204497 3.24731 0.189243 16.7976 0.0977197 23.1835C-0.0215383 31.4379 -0.0326319 39.0163 0.0699854 41.8695C0.275913 47.6057 0.321675 49.5159 0.325835 52.6166C0.328609 54.4276 0.293247 56.9951 0.246792 58.3215C0.20103 59.6479 0.180923 60.7788 0.202417 60.835C0.253726 60.9681 0.488775 60.9632 1.24038 60.8156C2.10569 60.645 6.13064 60.672 7.95764 60.8606C9.57733 61.0277 9.38319 61.0277 11.9278 60.8703Z" fill="white"/>
</svg>
