<svg width="22" height="22" viewBox="0 0 22 22" fill="none" xmlns="http://www.w3.org/2000/svg">
<g clip-path="url(#clip0_134_8)">
<path d="M7.53848 7.55954C7.60715 7.60635 7.68773 7.63109 7.77158 7.63109H7.77258C8.00153 7.63109 8.18775 7.44493 8.18775 7.21611C8.18775 7.1764 8.1822 7.13728 8.17124 7.09937C7.93219 6.0525 8.04546 5.20938 8.50784 4.59334C9.05274 3.86737 9.29406 2.93585 9.15344 2.10162C9.02927 1.36234 8.63182 0.747836 8.00441 0.324904C7.86552 0.230956 7.67462 0.231692 7.53614 0.326977C7.39492 0.424335 7.32865 0.59538 7.36757 0.763683C7.62567 1.86511 7.39097 2.56286 6.80234 3.62176C6.43578 4.28107 6.28607 5.02175 6.38075 5.70727C6.488 6.48252 6.88894 7.12344 7.53848 7.55954Z" fill="#015642"/>
<path d="M10.944 7.38181C11.009 7.42634 11.085 7.44988 11.1637 7.44988H11.1642C11.3796 7.44988 11.5548 7.27455 11.5548 7.05911C11.5548 7.02253 11.5497 6.98636 11.5396 6.95119C11.3583 6.15447 11.4431 5.51502 11.7915 5.05064C12.2278 4.46963 12.421 3.72313 12.3083 3.05393C12.2082 2.45842 11.888 1.96327 11.3824 1.62225C11.2523 1.53439 11.0761 1.53305 10.9411 1.62492C10.8097 1.71606 10.7467 1.88169 10.7837 2.03508C10.9804 2.87413 10.8002 3.40812 10.3487 4.22002C10.0554 4.74766 9.93578 5.34077 10.0118 5.88995C10.0981 6.51461 10.4212 7.03109 10.944 7.38181Z" fill="#015642"/>
<path d="M21.6467 9.89821C21.388 9.59357 21.018 9.4258 20.6049 9.4258H18.689C18.709 9.09735 18.6485 8.68766 18.4143 8.41197C18.2412 8.20816 17.9946 8.10043 17.7009 8.10043H1.09588C0.661244 8.10043 0.410828 8.28759 0.277362 8.4446C0.0039446 8.76609 -0.0337013 9.24753 0.0221324 9.59089C0.4795 12.4008 1.46759 14.9534 2.80452 16.7783C3.79395 18.129 4.95315 19.0914 6.26935 19.6609H1.64412C1.06953 19.6609 0.602134 20.1284 0.602134 20.7029C0.602134 21.2774 1.0696 21.7449 1.64412 21.7449H17.0489C17.6235 21.7449 18.091 21.2774 18.091 20.7029C18.091 20.1284 17.6235 19.6609 17.0489 19.6609H12.4481C13.532 19.1943 14.5061 18.4632 15.3638 17.4711C16.8347 17.3451 18.312 16.6427 19.5705 15.4609C20.8573 14.2526 21.7345 12.7101 21.9772 11.2292C22.0076 11.0439 22.0735 10.4005 21.6467 9.89821ZM17.0664 14.8451C17.6256 13.6984 18.0172 12.5154 18.2909 11.4318H19.8715C19.4703 12.7185 18.3907 14.073 17.0664 14.8451Z" fill="#015642"/>
</g>
<defs>
<clipPath id="clip0_134_8">
<rect width="22" height="22" fill="white"/>
</clipPath>
</defs>
</svg>
